# xmcd
#
# Track frame offsets:
#	150
#	21243
#	37029
#	52478
#	67549
#	84085
#	103003
#	121471
#	141849
#	161314
#	180197
#	199311
#	217969
#	237667
#	253028
#	266263
#	285060
#	310158
#	328610
#	346500
#
# Disc length: 4795 seconds
#
# Revision: 0
# Processed by: cddbd v1.5.1PL0 Copyright (c) Steve Scherf et al.
# Submitted via: dBpowerAMP V4.0
#
DISCID=1012b914
DTITLE=Zeze di Camargo e luciano - As vinte mais
DYEAR=1900
DGENRE=Sertanejo
TTITLE0=PASSOU DA CONTA
TTITLE1=PRA SEMPRE EM MIM
TTITLE2=E O AMOR
TTITLE3=CARA OU COROA
TTITLE4=TARDE DEMAIS
TTITLE5=ANTES DE VOLTAR PRA CASA
TTITLE6=E MINHA VIDA
TTITLE7=CADA VOLTA E UM RECOMEÇO
TTITLE8=SERAFIM E SEUS FILHOS
TTITLE9=PARE
TTITLE10=SERA QUE FOI SAUDADE
TTITLE11=INDIFERENCA
TTITLE12=SAUDADE BANDIDA
TTITLE13=O ULTIMO DOS APAIXONADOS
TTITLE14=MUDA DE VIDA
TTITLE15=DEPOIS QUE VOCE MATAR MEU CORACAO
TTITLE16=PRECISO SER AMADO
TTITLE17=DOIS CORACOES E UMA HISTORIA
TTITLE18=CAMA DE CAPIM
TTITLE19=EU TE AMO
EXTD=
EXTT0=
EXTT1=
EXTT2=
EXTT3=
EXTT4=
EXTT5=
EXTT6=
EXTT7=
EXTT8=
EXTT9=
EXTT10=
EXTT11=
EXTT12=
EXTT13=
EXTT14=
EXTT15=
EXTT16=
EXTT17=
EXTT18=
EXTT19=
PLAYORDER=
